<svg  class="icon" viewBox="0 0 1024 1024" version="1.1"
     xmlns="http://www.w3.org/2000/svg"  width="64" height="64">
  <path d="M814.47 926.15H245.49c-32.27 0-58.45-28.63-58.45-63.91V161.76c0-35.28 26.19-63.91 58.45-63.91h568.98c32.26 0 58.45 28.63 58.45 63.91v700.47c0 35.28-26.27 63.92-58.45 63.92zM245.49 143.87c-8.98 0-16.37 8.08-16.37 17.89v700.47c0 9.82 7.39 17.9 16.37 17.9h568.98c8.98 0 16.37-8.08 16.37-17.9V161.76c0-9.82-7.39-17.89-16.37-17.89H245.49z m0 0" ></path>
  <path d="M244.83 301.35h-74.64c-10.53 0-19.11-10.33-19.11-23.01 0-12.68 8.58-23.01 19.11-23.01h74.64c10.53 0 19.11 10.33 19.11 23.01 0 12.68-8.58 23.01-19.11 23.01z m0 233.66h-74.64c-10.53 0-19.11-10.33-19.11-23.01 0-12.68 8.58-23.01 19.11-23.01h74.64c10.53 0 19.11 10.33 19.11 23.01 0 12.68-8.58 23.01-19.11 23.01z m0 233.66h-74.64c-10.53 0-19.11-10.33-19.11-23.01 0-12.68 8.58-23.01 19.11-23.01h74.64c10.53 0 19.11 10.33 19.11 23.01 0 12.68-8.58 23.01-19.11 23.01z m0 0M703.28 318.02H375.95c-11.6 0-21.04-10.33-21.04-23.01S364.36 272 375.95 272h327.32c11.6 0 21.04 10.33 21.04 23.01s-9.43 23.01-21.03 23.01z m0 144.69H375.95c-11.6 0-21.04-10.33-21.04-23.01 0-12.68 9.44-23.01 21.04-23.01h327.32c11.6 0 21.04 10.33 21.04 23.01 0.01 12.68-9.43 23.01-21.03 23.01z m0 144.6H375.95c-11.6 0-21.04-10.33-21.04-23.01 0-12.68 9.44-23.01 21.04-23.01h327.32c11.6 0 21.04 10.33 21.04 23.01 0.01 12.68-9.43 23.01-21.03 23.01zM598.16 752H375.95c-11.6 0-21.04-10.33-21.04-23.01 0-12.68 9.44-23.01 21.04-23.01h222.21c11.6 0 21.04 10.33 21.04 23.01 0 12.68-9.44 23.01-21.04 23.01z m0 0" ></path>
</svg>
