<svg   class="icon" viewBox="100 100 800 800" version="1.1"
     xmlns="http://www.w3.org/2000/svg"   width="64" height="64">
  <path d="M639.3856 863.3856H198.1952a15.36 15.36 0 0 1-15.36-15.36V362.5472a202.3424 202.3424 0 0 1 201.7792-201.9328h441.1904a15.36 15.36 0 0 1 15.36 15.36v485.9392a202.5984 202.5984 0 0 1-201.9328 201.3184z m-425.6256-31.0784h425.6256a171.4688 171.4688 0 0 0 170.8544-170.24V191.6928H384.6144a170.8032 170.8032 0 0 0-170.8544 170.8544v469.76z"  ></path>
  <path d="M367.7696 674.1504a15.36 15.36 0 0 1-15.36-15.36v-128a15.36 15.36 0 1 1 30.72 0v128a15.36 15.36 0 0 1-15.36 15.36z"  ></path>
  <path d="M500.0704 674.9696h-128a15.36 15.36 0 1 1 0-30.72h128a15.36 15.36 0 0 1 0 30.72zM656.2304 508.5696a15.36 15.36 0 0 1-15.36-15.36v-128a15.36 15.36 0 0 1 30.72 0v128a15.36 15.36 0 0 1-15.36 15.36z"  ></path>
  <path d="M651.9296 379.7504h-128a15.36 15.36 0 0 1 0-30.72h128a15.36 15.36 0 0 1 0 30.72z" ></path>
</svg>
