<svg   class="icon" viewBox="-80 -80 1200 1200" version="1.1"
     xmlns="http://www.w3.org/2000/svg"  width="64" height="64">
  <path d="M1004 1020H20c-8.8 0-16-7.2-16-16V20c0-8.8 7.2-16 16-16h984c8.8 0 16 7.2 16 16v984c0 8.8-7.2 16-16 16z m-968-32h952V36H36v952z" ></path>
  <path d="M1004 234.4H20c-4.8 0-8-3.2-8-8V20c0-4.8 3.2-8 8-8h984c4.8 0 8 3.2 8 8v206.4c0 4.8-3.2 8-8 8z m-976-16h968V28H28v190.4zM648.8 890.4c-4 0-7.2-3.2-8-7.2l-69.6-486.4-80 419.2c-0.8 4-4 6.4-7.2 6.4s-7.2-2.4-8-5.6l-40.8-149.6-45.6 150.4c-0.8 4-4.8 5.6-8 5.6-4 0-6.4-3.2-7.2-7.2L336 523.2 266.4 816c-0.8 4-4 6.4-8 6.4H100.8c-4.8 0-8-3.2-8-8s3.2-8 8-8h152l77.6-329.6c0.8-4 4.8-6.4 8-6.4 4 0 7.2 3.2 7.2 7.2L384 776.8l43.2-141.6c0.8-3.2 4-5.6 8-5.6 3.2 0 6.4 2.4 7.2 5.6l39.2 143.2 81.6-432c0.8-4 4-6.4 8-6.4s7.2 3.2 8 7.2l69.6 483.2 53.6-322.4c0.8-4 4-6.4 8-6.4 3.2 0 7.2 2.4 8 6.4l62.4 293.6h141.6c4.8 0 8 3.2 8 8s-3.2 8-8 8H774.4c-4 0-7.2-2.4-8-6.4L712 552l-56 331.2c0 4-4 7.2-7.2 7.2z" ></path>
  <path d="M869.6 160c-2.4 0-4-0.8-5.6-2.4-3.2-3.2-3.2-8 0-11.2l57.6-57.6c3.2-3.2 8-3.2 11.2 0 3.2 3.2 3.2 8 0 11.2l-57.6 57.6c-1.6 1.6-3.2 2.4-5.6 2.4z" ></path>
  <path d="M927.2 160c-2.4 0-4-0.8-5.6-2.4l-57.6-57.6c-3.2-3.2-3.2-8 0-11.2 3.2-3.2 8-3.2 11.2 0l57.6 57.6c3.2 3.2 3.2 8 0 11.2-1.6 1.6-4 2.4-5.6 2.4zM566.4 131.2h-55.2c-4.8 0-8-3.2-8-8s3.2-8 8-8h55.2c4.8 0 8 3.2 8 8s-4 8-8 8zM756 131.2h-55.2c-4.8 0-8-3.2-8-8s3.2-8 8-8h55.2c4.8 0 8 3.2 8 8s-4 8-8 8z" ></path>
</svg>
