<svg  class="icon" viewBox="-10 0 1024 1024" version="1.1"
     xmlns="http://www.w3.org/2000/svg"  width="64" height="64">
  <path d="M216.96 231.04h-102.4a31.36 31.36 0 0 1 0-64h102.4a31.36 31.36 0 0 1 0 64zM216.96 339.84h-102.4a31.36 31.36 0 1 1 0-64h102.4a31.36 31.36 0 1 1 0 64z"  ></path>
  <path d="M229.12 951.04h-128a93.44 93.44 0 0 1-92.16-94.08V161.92A93.44 93.44 0 0 1 102.4 67.84h128a94.08 94.08 0 0 1 92.8 94.08v695.04a94.08 94.08 0 0 1-94.08 94.08zM102.4 128a30.72 30.72 0 0 0-30.72 31.36v697.6a30.72 30.72 0 0 0 30.72 31.36h128a31.36 31.36 0 0 0 31.36-31.36V161.92A31.36 31.36 0 0 0 229.12 128z"  ></path>
  <path d="M165.76 748.8m-44.16 0a44.16 44.16 0 1 0 88.32 0 44.16 44.16 0 1 0-88.32 0Z" ></path>
  <path d="M469.12 231.04H366.08a31.36 31.36 0 0 1 0-64h103.04a31.36 31.36 0 0 1 0 64zM469.12 339.84H366.08a31.36 31.36 0 0 1 0-64h103.04a31.36 31.36 0 0 1 0 64z" ></path>
  <path d="M480.64 951.04h-128a94.08 94.08 0 0 1-93.44-94.08V161.92a94.08 94.08 0 0 1 94.72-94.08h128A94.08 94.08 0 0 1 576 161.92v695.04a94.08 94.08 0 0 1-95.36 94.08zM353.92 128a31.36 31.36 0 0 0-30.72 31.36v697.6a31.36 31.36 0 0 0 30.72 31.36h128a31.36 31.36 0 0 0 30.08-31.36V161.92A31.36 31.36 0 0 0 480.64 128z" ></path>
  <path d="M417.28 748.8m-44.16 0a44.16 44.16 0 1 0 88.32 0 44.16 44.16 0 1 0-88.32 0Z" ></path>
  <path d="M648.96 225.28a31.36 31.36 0 0 1-7.68-64l99.2-25.6a31.36 31.36 0 1 1 15.36 60.8l-99.2 24.96a16 16 0 0 1-7.68 3.84zM675.84 330.88a31.36 31.36 0 0 1-7.68-64L768 243.84a30.72 30.72 0 0 1 37.76 22.4 31.36 31.36 0 0 1-22.4 38.4l-99.2 24.96z" ></path>
  <path d="M798.72 928a93.44 93.44 0 0 1-90.88-70.4L536.96 183.04a92.16 92.16 0 0 1 10.24-71.04 95.36 95.36 0 0 1 57.6-42.88l122.88-31.36a93.44 93.44 0 0 1 113.92 68.48l170.88 673.92a95.36 95.36 0 0 1-10.24 71.04 93.44 93.44 0 0 1-57.6 42.88l-122.88 31.36a94.08 94.08 0 0 1-23.04 2.56z m-48-832h-7.68L620.16 128a30.72 30.72 0 0 0-19.2 14.08 33.92 33.92 0 0 0-3.2 23.68L768 842.24a31.36 31.36 0 0 0 37.76 22.4l123.52-32.64a32.64 32.64 0 0 0 19.2-14.08 33.28 33.28 0 0 0 0-23.68L780.8 121.6a30.72 30.72 0 0 0-30.08-23.68z" ></path>
  <path d="M833.28 713.6m-44.16 0a44.16 44.16 0 1 0 88.32 0 44.16 44.16 0 1 0-88.32 0Z" ></path>
</svg>
