<svg  class="icon" viewBox="-10 20 1024 1024" version="1.1"
     xmlns="http://www.w3.org/2000/svg" width="64" height="64">
  <path d="M958.620955 427.539376l-42.606377 0c-11.773138 0-21.301142 9.528004-21.301142 21.301142l0 553.857317c0 11.732206 9.529027 21.301142 21.301142 21.301142l42.606377 0c11.774161 0 21.301142-9.56996 21.301142-21.301142L979.922097 448.840518C979.922097 437.06738 970.395116 427.539376 958.620955 427.539376zM660.38962 555.352367l-42.60433 0c-11.775184 0-21.301142 9.528004-21.301142 21.301142l0 426.044326c0 11.732206 9.526981 21.301142 21.301142 21.301142l42.60433 0c11.774161 0 21.303188-9.56996 21.303188-21.301142L681.692809 576.654532C681.692809 564.880371 672.162758 555.352367 660.38962 555.352367zM362.159308 257.121032l-42.60433 0c-11.775184 0-21.302165 9.487072-21.302165 21.302165l0 724.275661c0 11.732206 9.526981 21.301142 21.302165 21.301142l42.60433 0c11.774161 0 21.301142-9.56996 21.301142-21.301142l0-724.275661C383.46045 266.60708 373.932446 257.121032 362.159308 257.121032zM63.927973 768.374018 21.32262 768.374018c-11.775184 0-21.302165 9.528004-21.302165 21.300119l0 213.023698c0 11.732206 9.526981 21.301142 21.302165 21.301142l42.605354 0c11.774161 0 21.302165-9.56996 21.302165-21.301142L85.230138 789.67516C85.230138 777.902022 75.703158 768.374018 63.927973 768.374018z" ></path>
</svg>
