<svg class="icon" viewBox="0 0 1024 1024" version="1.1"
     xmlns="http://www.w3.org/2000/svg" width="64" height="64">
  <path d="M707.490909 763.345455c-58.181818 0-102.4-44.218182-102.4-102.4v-23.272728c0-58.181818 44.218182-102.4 102.4-102.4s102.4 44.218182 102.4 102.4v23.272728c2.327273 25.6-6.981818 51.2-25.6 69.818181-20.945455 20.945455-48.872727 32.581818-76.8 32.581819z m0-181.527273c-30.254545 0-55.854545 25.6-55.854545 55.854545v23.272728c0 30.254545 25.6 55.854545 55.854545 55.854545 16.290909 0 30.254545-6.981818 41.890909-18.618182 9.309091-9.309091 13.963636-23.272727 13.963637-37.236363v-25.6c0-27.927273-25.6-53.527273-55.854546-53.527273z"  ></path>
  <path d="M842.472727 982.109091h-256c-27.927273 0-55.854545-13.963636-72.145454-37.236364-13.963636-20.945455-18.618182-44.218182-11.636364-67.490909l18.618182-72.145454c9.309091-37.236364 46.545455-67.490909 90.763636-67.490909h209.454546c41.890909 0 81.454545 27.927273 90.763636 67.490909l18.618182 72.145454c6.981818 20.945455 2.327273 46.545455-11.636364 67.490909-20.945455 23.272727-48.872727 37.236364-76.8 37.236364z m-232.727272-195.490909c-20.945455 0-39.563636 13.963636-44.218182 30.254545l-18.618182 72.145455c-4.654545 13.963636 2.327273 23.272727 4.654545 27.927273 6.981818 11.636364 20.945455 16.290909 34.909091 16.290909h256c13.963636 0 27.927273-6.981818 34.909091-16.290909 4.654545-4.654545 9.309091-13.963636 4.654546-27.927273l-18.618182-72.145455c-4.654545-18.618182-23.272727-32.581818-44.218182-32.581818h-209.454545v2.327273z"  ></path>
  <path d="M735.418182 909.963636h-44.218182l-53.527273-137.309091 20.945455-32.581818H768l20.945455 32.581818-53.527273 137.309091z m-39.563637-123.345454l18.618182 48.872727 18.618182-48.872727h-37.236364zM786.967273 862.417455l45.591272-9.425455 23.552 113.943273-45.568 9.425454zM552.378182 967.121455l19.386182-112.384 45.847272 7.912727-19.362909 112.407273z"   ></path>
  <path d="M442.181818 977.454545H139.636364V93.090909h744.727272v512h-46.545454V139.636364H186.181818v791.272727h256z"   ></path>
  <path d="M279.272727 418.909091h465.454546v46.545454H279.272727zM279.272727 605.090909h218.763637v46.545455H279.272727zM279.272727 791.272727h144.290909v46.545455H279.272727zM279.272727 232.727273h465.454546v46.545454H279.272727z"  ></path>
</svg>
